# xmcd CD database file
#
# Track frame offsets:
#	150
#	30683
#	64261
#	93258
#	105824
#	131182
#	150875
#	166692
#	178622
#	194431
#	213644
#	238467
#	255104
#	278154
#	288972
#	306877
#
# Disc length: 4324 seconds
#
# Revision: 0
# Processed by: cddbd v1.5.2PL0 Copyright (c) Steve Scherf et al.
# Submitted via: CDex 1.70beta2
#
DISCID=d710e210
DTITLE=Various Artist - Les Trésors Du Jazz 1954 (9)
DYEAR=2006
DGENRE=Jazz
TTITLE0=Horace Silver, Doodlin'
TTITLE1=Horace Silver, Creepin'
TTITLE2=Dick Collins, The Winter Of My Discontent
TTITLE3=Charlie Barnet, Lullaby Of Birdland
TTITLE4=Charlie Parker, Love For Sale
TTITLE5=Jimmi Rowles, All The Things You Are
TTITLE6=Bernard Peiffer, Cheek To Cheek
TTITLE7=Jazz Groupe De Paris, Esquisse I
TTITLE8=Jazz Groupe DE Paris, Paradoxe II
TTITLE9=Zoot Sims, I'll Remember April
TTITLE10=John Graas and Gerry Mulligan, Mulligaesque
TTITLE11=Bud Powell, Deep Night
TTITLE12=Bud Powell, Round About Midnight
TTITLE13=Count Basie and Stan Getz, Little Pony
TTITLE14=Count Basie and Stan Getz, Nails
TTITLE15=Count Basie and Charlie Fowlkes, Rock-A-Bye-Basie
EXTD=YEAR: 2006
EXTT0=
EXTT1=
EXTT2=
EXTT3=
EXTT4=
EXTT5=
EXTT6=
EXTT7=
EXTT8=
EXTT9=
EXTT10=
EXTT11=
EXTT12=
EXTT13=
EXTT14=
EXTT15=
PLAYORDER=
